<svg id="Layer_1" data-name="Layer 1" xmlns="http://www.w3.org/2000/svg" viewBox="0 0 2380.39 2380.49"><path d="M1190.24,579.07c-337.55,0-611.17,273.62-611.17,611.17h0c0,337.56,273.62,611.18,611.17,611.18s611.18-273.62,611.18-611.18S1527.8,579.07,1190.24,579.07Zm0,1008c-219.1,0-396.68-177.67-396.68-396.78s177.58-396.78,396.68-396.78S1587,971.14,1587,1190.24,1409.35,1587,1190.24,1587Z" transform="translate(0)" style="fill:#fcfcfc"/><path d="M2373.28,699.53c-5.77-126.71-25.86-213.24-55.28-288.91-30.48-78.26-71.15-144.59-137.3-210.84S2048.12,92.87,1970,62.49c-75.76-29.42-162.29-49.61-288.91-55.28C1554.14,1.44,1513.57,0,1190.34,0S826.54,1.35,699.53,7.21C572.82,13,486.29,33.07,410.62,62.49,332.36,92.87,266,133.64,199.78,199.78S92.87,332.27,62.49,410.62C33.07,486.29,13,572.82,7.21,699.53,1.35,826.44,0,867,0,1190.24S1.35,1554.05,7.21,1681c5.77,126.71,25.86,213.24,55.28,288.9,30.38,78.26,71,144.7,137.29,210.85S332.27,2287.52,410.62,2318c75.77,29.42,162.2,49.51,288.91,55.28,127,5.77,167.48,7.21,490.71,7.21s363.81-1.35,490.72-7.21c126.71-5.77,213.24-25.86,288.9-55.28,78.26-30.48,144.6-71.15,210.84-137.29s106.82-132.59,137.3-210.85c29.42-75.66,49.61-162.19,55.28-288.9,5.77-127,7.11-167.48,7.11-490.72S2379.05,826.44,2373.28,699.53Zm-214.11,971.72c-5.29,116-24.71,179.11-41,221-21.63,55.57-47.4,95.18-89,136.81s-81.33,67.39-136.9,89c-41.92,16.34-105,35.67-221,41-125.47,5.77-163.16,6.93-481,6.93s-355.43-1.16-480.9-6.93c-116-5.28-179.11-24.61-221-41-55.57-21.64-95.18-47.4-136.91-89s-67.49-81.24-89-136.81c-16.34-41.92-35.67-105-41-221-5.77-125.47-6.93-163.16-6.93-481s1.25-355.43,6.93-481c5.28-116,24.7-179,41-221,21.64-55.57,47.4-95.18,89-136.91s81.24-67.49,136.91-89c41.92-16.35,105-35.67,221-41,125.47-5.77,163.15-6.92,480.9-6.92s355.44,1.25,481,6.92c116,5.29,179,24.71,221,41,55.57,21.53,95.18,47.39,136.9,89s67.4,81.34,89,136.91c16.35,41.92,35.67,105,41,221,5.77,125.57,6.92,163.16,6.92,481S2164.94,1545.68,2159.17,1671.25Z" transform="translate(0)" style="fill:#fcfcfc"/><path d="M1825.65,412.07a142.82,142.82,0,1,0,142.87,142.77A142.81,142.81,0,0,0,1825.65,412.07Z" transform="translate(0)" style="fill:#fcfcfc"/></svg>