<svg id="Layer_1" data-name="Layer 1" xmlns="http://www.w3.org/2000/svg" viewBox="0 0 2931 2931"><path d="M2279.2,1557.6c-452.3-278-1114-356.2-1646.2-194.7a114.23,114.23,0,1,0,66.4,218.6c465.9-141.4,1066.5-71.3,1460.3,170.8a114.34,114.34,0,0,0,157.2-37.6h0C2350,1661,2333,1590.7,2279.2,1557.6Z" style="fill:none"/><path d="M2107.3,1988c-386.3-236-865.2-290.9-1423.4-163.4a91.35,91.35,0,1,0,40.7,178.1c510.1-116.5,943.3-69,1287.4,141.3a91.28,91.28,0,0,0,125.6-30.4C2164,2070.6,2150.3,2014.5,2107.3,1988Z" style="fill:none"/><path d="M2472.2,1063.3c-543.8-322.8-1404.3-353.1-1922-196a137.17,137.17,0,0,0-91.4,171c21.9,72.4,98.5,113.3,170.9,91.3,451-136.8,1230.2-111,1702.6,169.5a137.09,137.09,0,0,0,139.9-235.8Z" style="fill:none"/><path d="M1465.5,0C656.1,0,0,656.1,0,1465.5S656.1,2931,1465.5,2931,2931,2274.9,2931,1465.5,2274.9.1,1465.5,0Zm672.1,2113.6A91.28,91.28,0,0,1,2012,2144c-344.1-210.3-777.3-257.8-1287.4-141.3a91.35,91.35,0,1,1-40.7-178.1C1242.1,1697.1,1721,1752,2107.3,1988,2150.3,2014.5,2164,2070.6,2137.6,2113.6Zm179.3-398.9h0a114.34,114.34,0,0,1-157.2,37.6c-393.8-242.1-994.4-312.2-1460.3-170.8A114.23,114.23,0,1,1,633,1362.9c532.2-161.5,1193.9-83.3,1646.2,194.7C2333,1590.7,2350,1661,2316.9,1714.7Zm15.4-415.6c-472.4-280.5-1251.6-306.3-1702.6-169.5-72.4,22-149-18.9-170.9-91.3a137.17,137.17,0,0,1,91.4-171c517.7-157.1,1378.2-126.8,1922,196a137.09,137.09,0,0,1-139.9,235.8Z" style="fill:#fff"/></svg>