<svg id="Layer_1" data-name="Layer 1" xmlns="http://www.w3.org/2000/svg" viewBox="0 0 2928 2380.49"><path d="M924.89,2380.49c1105,0,1709.22-915.75,1709.22-1709.86q0-39-1.7-77.67a1222.06,1222.06,0,0,0,299.65-311.19,1197.37,1197.37,0,0,1-345,94.62c124-74.4,219.25-192.1,264.17-332.39a1204.64,1204.64,0,0,1-381.46,145.87C2360.17,73.06,2204.1,0,2031.29,0c-331.74,0-600.76,269.13-600.76,600.87a600.45,600.45,0,0,0,15.58,137C946.84,712.76,504.11,473.63,207.82,110a599.43,599.43,0,0,0-81.34,302.05c0,208.5,106.05,392.55,267.33,500.23a596.14,596.14,0,0,1-272.07-75.16c-.09,2.52-.09,5-.09,7.68,0,291,207.07,534,481.94,589.08a599.62,599.62,0,0,1-271.3,10.32C408.77,1683,630.53,1856.74,893.47,1861.6c-205.61,161.21-464.62,257.23-746.12,257.23a1221,1221,0,0,1-143.29-8.32C269.93,2281,585.61,2380.45,924.92,2380.45" transform="translate(-4.06)" style="fill:#fff"/></svg>