<svg xmlns="http://www.w3.org/2000/svg" viewBox="0 0 70 70"><rect x="35" y="63" width="7" height="7" style="fill:#ffbaa8;opacity:0.25"/><rect x="28" y="63" width="7" height="7" style="fill:#ffb193;opacity:0.25"/><rect x="49" y="56" width="7" height="7" style="fill:#ffadbc;opacity:0.35"/><rect x="42" y="56" width="7" height="7" style="fill:#ffb2b2"/><rect x="42" y="63" width="7" height="7" style="fill:#ffa6a9;opacity:0.1"/><rect x="21" y="63" width="7" height="7" style="fill:#ffcc93;opacity:0.1"/><rect x="35" y="56" width="7" height="7" style="fill:#ffb5a7"/><rect x="28" y="56" width="7" height="7" style="fill:#ffae97"/><rect x="21" y="56" width="7" height="7" style="fill:#ffaa90"/><rect x="14" y="56" width="7" height="7" style="fill:#ffa38c;opacity:0.35"/><rect x="56" y="49" width="7" height="7" style="fill:#e89dd1;opacity:0.35"/><rect x="49" y="49" width="7" height="7" style="fill:#f5a7c8"/><rect x="42" y="49" width="7" height="7" style="fill:#ffaeba"/><rect x="35" y="49" width="7" height="7" style="fill:#ffada8"/><rect x="28" y="49" width="7" height="7" style="fill:#ffaa9c"/><rect x="21" y="49" width="7" height="7" style="fill:#ffa895"/><rect x="14" y="49" width="7" height="7" style="fill:#ffa794"/><rect x="7" y="49" width="7" height="7" style="fill:#ff9c8f;opacity:0.35"/><rect x="63" y="42" width="7" height="7" style="fill:#b57ddd;opacity:0.1"/><rect x="56" y="42" width="7" height="7" style="fill:#d595e0"/><rect x="49" y="42" width="7" height="7" style="fill:#e099d2"/><rect x="42" y="42" width="7" height="7" style="fill:#f4a0c3"/><rect x="35" y="42" width="7" height="7" style="fill:#ffa0b0"/><rect x="28" y="42" width="7" height="7" style="fill:#ffa0a4"/><rect x="21" y="42" width="7" height="7" style="fill:#ff9692"/><rect x="14" y="42" width="7" height="7" style="fill:#ff978f"/><rect x="7" y="42" width="7" height="7" style="fill:#ff9690"/><rect y="42" width="7" height="7" style="fill:#ff9093;opacity:0.1"/><rect x="63" y="35" width="7" height="7" style="fill:#ba84f2;opacity:0.25"/><rect x="56" y="35" width="7" height="7" style="fill:#bf89ee"/><rect x="49" y="35" width="7" height="7" style="fill:#c988df"/><rect x="42" y="35" width="7" height="7" style="fill:#dc8dcf"/><rect x="35" y="35" width="7" height="7" style="fill:#ed8ebb"/><rect x="28" y="35" width="7" height="7" style="fill:#fd92ae"/><rect x="21" y="35" width="7" height="7" style="fill:#ff8d9d"/><rect x="14" y="35" width="7" height="7" style="fill:#ff8d96"/><rect x="7" y="35" width="7" height="7" style="fill:#ff8289"/><rect y="35" width="7" height="7" style="fill:#ff7f87;opacity:0.25"/><rect x="63" y="28" width="7" height="7" style="fill:#ac7cff;opacity:0.25"/><rect x="56" y="28" width="7" height="7" style="fill:#b980f4"/><rect x="49" y="28" width="7" height="7" style="fill:#b37aee"/><rect x="42" y="28" width="7" height="7" style="fill:#c175d5"/><rect x="35" y="28" width="7" height="7" style="fill:#df80c9"/><rect x="28" y="28" width="7" height="7" style="fill:#ee7fb5"/><rect x="21" y="28" width="7" height="7" style="fill:#f77da3"/><rect x="14" y="28" width="7" height="7" style="fill:#ff7f9a"/><rect x="7" y="28" width="7" height="7" style="fill:#ff7b90"/><rect y="28" width="7" height="7" style="fill:#ff7a8e;opacity:0.25"/><rect x="63" y="21" width="7" height="7" style="fill:#9f7aff;opacity:0.1"/><rect x="56" y="21" width="7" height="7" style="fill:#a489f7"/><rect x="49" y="21" width="7" height="7" style="fill:#a670fb"/><rect x="42" y="21" width="7" height="7" style="fill:#b569e1"/><rect x="35" y="21" width="7" height="7" style="fill:#ce6dcd"/><rect x="28" y="21" width="7" height="7" style="fill:#da66b1"/><rect x="21" y="21" width="7" height="7" style="fill:#e766a1"/><rect x="14" y="21" width="7" height="7" style="fill:#f46b98"/><rect x="7" y="21" width="7" height="7" style="fill:#fd7096"/><rect y="21" width="7" height="7" style="fill:#ff7493;opacity:0.1"/><rect x="56" y="14" width="7" height="7" style="fill:#9565ff;opacity:0.35"/><rect x="49" y="14" width="7" height="7" style="fill:#9d5ef3"/><rect x="42" y="14" width="7" height="7" style="fill:#b360e5"/><rect x="35" y="14" width="7" height="7" style="fill:#c158ca"/><rect x="28" y="14" width="7" height="7" style="fill:#d659b6"/><rect x="21" y="14" width="7" height="7" style="fill:#df55a2"/><rect x="14" y="14" width="7" height="7" style="fill:#ed5f9d"/><rect x="7" y="14" width="7" height="7" style="fill:#f7679b;opacity:0.35"/><rect x="49" y="7" width="7" height="7" style="fill:#a158ec;opacity:0.35"/><rect x="42" y="7" width="7" height="7" style="fill:#b358df"/><rect x="35" y="7" width="7" height="7" style="fill:#c252c9"/><rect x="28" y="7" width="7" height="7" style="fill:#d04bb3"/><rect x="21" y="7" width="7" height="7" style="fill:#de4fa6"/><rect x="14" y="7" width="7" height="7" style="fill:#e857a0;opacity:0.35"/><rect x="42" width="7" height="7" style="fill:#a73fd1;opacity:0.1"/><rect x="35" width="7" height="7" style="fill:#bd4bc5;opacity:0.25"/><rect x="28" width="7" height="7" style="fill:#cf4cb7;opacity:0.25"/><rect x="21" width="7" height="7" style="fill:#d54ba8;opacity:0.1"/></svg>