<svg xmlns="http://www.w3.org/2000/svg" version="1.1" xmlns:xlink="http://www.w3.org/1999/xlink" xmlns:svgjs="http://svgjs.com/svgjs" width="1000" height="1000"><svg version="1.1" id="SvgjsSvg1001" xmlns="http://www.w3.org/2000/svg" xmlns:xlink="http://www.w3.org/1999/xlink" x="0px" y="0px" viewBox="0 0 1000 1000" style="enable-background:new 0 0 1000 1000;" xml:space="preserve">
<style type="text/css">
	.st0{fill:#010202;}
</style>
<g>
	<g>
		<g id="SvgjsG1000">
			<g>
				<g>
					<path class="st0" d="M283.99,430.22c0,23.24,0,45.75,0,67.51c-22.95,0.83-45.91,1.02-68.86,0.37c0-5.35,0-10.75,0-16.19
						c-26.68,14.46-56.52,15.58-86.36,11.59c-39.31-5.11-73.73-24.51-73.73-52.29c0-32.8,51.64-32.59,101.85-29.66
						c24.1,1.68,42.46,4.89,58.24,10.01c0-17.14-21.8-18.31-44.76-19.55c-22.09-1.26-47.34-1.33-78.9-0.16
						c-7.46-13.71-14.92-27.32-22.38-40.59c34.43-4.86,71.73-8.61,103.57-7.66C243.25,355.18,283.42,376.15,283.99,430.22z
						 M215.13,448.25c-10.9-2.6-25.82-4.23-45.62-5.6c-31.85-2.33-45.62-2.17-45.62,6.44c0,7.35,8.03,9.65,25.54,11.42
						c23.24,2.35,48.49-0.91,65.7-6.5C215.13,452.1,215.13,450.17,215.13,448.25z"></path>
				</g>
				<g>
					<path class="st0" d="M520.95,305.79c0,55.69,0,112.07,0,169.12c-22.95,2.8-45.9,5.66-68.86,8.38c0-5.91,0-11.83,0-17.77
						c-18.08,15.98-44.47,25.13-71.15,27.7c-44.47,4.28-94.1-7.19-94.1-63.78c0-57.39,49.63-76.48,94.1-77.7
						c26.68-0.97,53.08,4.54,71.15,17.68c0-21.01,0-42.22,0-63.62C475.05,305.79,498,305.79,520.95,305.79z M452.09,417.81
						c0-19.38-17.5-22.83-48.2-20.61c-30.7,2.15-48.2,8.36-48.2,28.75c0,20.24,17.5,23.86,48.2,20.94
						C434.59,443.89,452.09,437.12,452.09,417.81z"></path>
				</g>
				<g>
					<path class="st0" d="M710.86,342.52c0,12.01,0,24.34,0,37.01c-16.07-2.2-28.98-2.81-41.6-2.21
						c-24.39,1.19-51.07,4.63-70.86,21.61c0,21.86,0,44.22,0,67.07c-22.95,2.4-45.9,5.1-68.86,7.88c0-42.73,0-84.93,0-126.59
						c22.95-1.11,45.9-2.18,68.86-3.14c0,6.49,0,13.02,0,19.6c15.21-16.49,38.73-23.05,66.85-23.83
						C685.32,339.37,699.38,340.91,710.86,342.52z"></path>
				</g>
				<g>
					<path class="st0" d="M710.84,396.83c0-42.91,43.9-59,117.06-57.27c73.16,1.4,117.06,24.88,117.06,73.53
						c0,48.4-43.9,53.95-117.06,48.09C754.74,456.3,710.84,440.85,710.84,396.83z M876.1,402.41c0-17.7-17.5-23.87-48.2-25.53
						c-30.7-1.51-48.2,2.46-48.2,19.38c0,17.19,17.5,21.74,48.2,23.78C858.6,422.29,876.1,420.29,876.1,402.41z"></path>
				</g>
				<g>
					<path class="st0" d="M292.02,639.16c0,44.68-49.63,54.76-94.11,55.05c-26.68-0.03-53.08-4.62-71.15-17.09
						c0,5.12,0,10.2,0,15.24c-22.95-0.07-45.91-0.16-68.86-0.29c0-56.82,0-113.81,0-171c22.95,5.54,45.91,9.77,68.86,12.91
						c0,19.87,0,39.3,0,58.28c18.07-10.82,44.47-13.96,71.15-12.87C242.39,581.21,292.02,593.81,292.02,639.16z M223.16,639.66
						c0-16.3-17.5-20.61-48.2-22.15c-30.7-1.74-48.2,0.68-48.2,17.98c0,17.15,17.5,22.3,48.2,23.21
						C205.66,659.51,223.16,655.74,223.16,639.66z"></path>
				</g>
				<g>
					<path class="st0" d="M360.86,654.23c0,6.36,9.18,8.59,50.78,7.09c38.45-1.45,45.05-3.01,45.04-8.35c0-6.19-6.6-5.17-47.91-4.29
						c-79.18,1.55-113.9-1.46-113.9-30.29c0-32.72,53.08-41.3,116.77-47.73c63.7-6.51,108.16-5.82,108.16,32.09
						c-22.95,2.02-45.9,4.07-68.86,6.03c0-6.67-11.47-5.56-42.18-3.02c-35,2.8-45.04,3.33-45.04,7.89c0,4.86,7.17,4.4,50.78,2.78
						c67.71-2.86,111.03-3.85,111.03,30.97c0,40.81-45.9,47.07-111.03,46.8C349.38,693.83,292,689.59,292,656.17
						C314.95,655.76,337.91,655.08,360.86,654.23z"></path>
				</g>
				<g>
					<path class="st0" d="M693.07,604.28c31.37,26.99,62.74,56.79,94.11,87.32c-29.65-0.02-59.3-0.01-88.94,0.02
						c-19.22-19.41-38.45-37.87-57.67-55.21c-13.48,8.78-26.97,17.5-40.45,26.02c0,9.71,0,19.5,0,29.36
						c-22.95,0.05-45.9,0.11-68.86,0.17c0-59.48,0-117.96,0-175.42c22.95-2.78,45.9-5.47,68.86-7.87c0,29.99,0,60.81,0,92.46
						c26.97-18.3,53.94-36.86,80.91-54.64c35.39-1.98,70.77-2.82,106.16-1.83C755.81,562.84,724.44,583.23,693.07,604.28z"></path>
				</g>
				<g>
					<path class="st0" d="M942.4,519.75c0,11.45,0,22.91,0,34.38c-48.86-11-97.72-16.5-146.58-18.32c0-12.13,0-24.04,0-35.74
						C844.68,502.03,893.54,507.94,942.4,519.75z M942.4,562.73c0,43.01,0,86.12,0,129.31c-48.86-0.26-97.72-0.39-146.58-0.44
						c0-51.9,0-100.78,0-146.66C844.68,546.72,893.54,552.06,942.4,562.73z"></path>
				</g>
			</g>
		</g>
	</g>
</g>
</svg><style>@media (prefers-color-scheme: light) { :root { filter: none; } }
@media (prefers-color-scheme: dark) { :root { filter: none; } }
</style></svg>